<svg width="20" height="20" viewBox="0 0 20 20" fill="none" xmlns="http://www.w3.org/2000/svg">
<path d="M15.9307 7.02687C15.8529 6.94918 15.0443 7.06896 14.9422 7.02687C14.8402 6.98479 15.0528 7.02687 14.9422 7.02687C14.8317 7.02687 15.0443 6.98479 14.9422 7.02687C14.8402 7.06896 15.0201 6.94918 14.9422 7.02687L10.9884 11.009C10.9106 11.0867 10.102 10.9669 10 11.009C9.89797 11.051 10.1105 11.009 10 11.009C9.88947 11.009 10.102 11.051 10 11.009C9.89797 10.9669 9.08938 11.0867 9.01155 11.009L5.05775 7.02687C4.97992 6.94918 5.15978 7.06896 5.05775 7.02687C4.95573 6.98479 5.16828 7.02687 5.05775 7.02687C4.94723 7.02687 5.15978 6.98479 5.05775 7.02687C4.95573 7.06896 4.14714 6.94918 4.06931 7.02687C3.91337 7.18219 4.06931 7.8034 4.06931 8.0224C3.91337 7.86708 4.06931 8.24139 4.06931 8.0224L8.0231 12.0045C8.49405 12.4702 9.33439 13 10 13C10.6656 13 11.5059 12.4702 11.9769 12.0045L15.9307 8.0224C15.9307 8.24139 16.0866 7.86708 15.9307 8.0224C15.9307 7.8034 16.0866 7.18219 15.9307 7.02687Z" fill="#6C757D"/>
</svg>
