<svg width="19" height="19" viewBox="0 0 19 19" fill="none" xmlns="http://www.w3.org/2000/svg">
<path d="M18.332 1.62891C18.7188 1.73438 19 2.05078 19 2.4375C19 11.4727 11.6875 18.75 2.6875 18.75C2.26562 18.75 1.94922 18.5039 1.84375 18.1172L1 14.4609C0.929688 14.0742 1.10547 13.6523 1.49219 13.4766L5.42969 11.7891C5.78125 11.6484 6.16797 11.7539 6.41406 12.0352L8.17188 14.1797C10.9141 12.8789 13.1289 10.6289 14.3945 7.95703L12.25 6.19922C11.9688 5.95312 11.8633 5.56641 12.0039 5.21484L13.6914 1.27734C13.8672 0.890625 14.2891 0.679688 14.6758 0.785156L18.332 1.62891Z" fill="#8A8A8A"/>
</svg>
