<svg width="14" height="19" viewBox="0 0 14 19" fill="none" xmlns="http://www.w3.org/2000/svg">
<path d="M6.54688 18.3984C1.41406 11.0156 0.5 10.2422 0.5 7.5C0.5 3.77344 3.48828 0.75 7.25 0.75C10.9766 0.75 14 3.77344 14 7.5C14 10.2422 13.0508 11.0156 7.91797 18.3984C7.60156 18.8906 6.86328 18.8906 6.54688 18.3984ZM7.25 10.3125C8.79688 10.3125 10.0625 9.08203 10.0625 7.5C10.0625 5.95312 8.79688 4.6875 7.25 4.6875C5.66797 4.6875 4.4375 5.95312 4.4375 7.5C4.4375 9.08203 5.66797 10.3125 7.25 10.3125Z" fill="#8A8A8A"/>
</svg>
