<svg width="24" height="24" viewBox="0 0 24 24" fill="none" xmlns="http://www.w3.org/2000/svg">
<g clip-path="url(#clip0_39_142)">
<path d="M22 8V17C22 17.7367 21.525 18.464 21 19C20.475 19.536 19.7639 19.9568 19 20H5C4.23479 20 3.55675 19.5054 3 19C2.44325 18.4946 2.04489 17.7354 2 17V8L11 14H12C11.8478 14 12.1367 14.0643 12 14C11.8633 14.0643 12.1522 14 12 14H13L22 8Z" fill="white"/>
<path d="M18 4.103C19.0738 4.103 20.475 4.23346 21 5.09013L12 12L2 5.09013C2.24929 4.68305 2.59286 4.34993 3 4.103C3.40714 3.85608 3.52558 4.13485 4 4.103H5H18Z" fill="white"/>
</g>
<defs>
<clipPath id="clip0_39_142">
<rect width="24" height="24" fill="white"/>
</clipPath>
</defs>
</svg>
