<svg width="24" height="24" viewBox="0 0 24 24" fill="none" xmlns="http://www.w3.org/2000/svg">
<path d="M19.9714 10.9999V9.99996H11.9859V13.9999H16.9769C16.7244 14.9641 15.7841 15.3944 14.9805 15.9999C14.1769 16.6053 12.9981 17.0112 11.9859 16.9999C10.6651 16.9891 9.95972 16.8833 8.99133 15.9999C8.51529 15.5384 8.25307 14.6056 7.99314 13.9999C7.73321 13.3942 6.99909 12.6573 6.99495 11.9999C7.01031 10.6795 8.05392 8.94534 8.99133 7.99999C9.94606 7.11041 10.6708 6.98931 11.9859 7.00001C13.1122 7.00853 14.1413 7.26103 14.9805 7.99999L17.9751 6.00002C16.501 4.70647 13.9614 3.99413 11.9859 4.00005C10.8992 3.9937 9.99782 4.59685 8.99133 5.00003C7.98484 5.40322 6.76975 5.24868 5.99676 6.00002C4.52639 7.50219 4.01739 9.91481 4.00037 11.9999C3.98335 14.0851 4.55111 16.4746 5.99676 17.9998C6.79771 18.7847 7.944 18.5809 8.99133 18.9998C10.0387 19.4187 10.8554 20.0121 11.9859 19.9998C13.0111 20.0073 14.0351 19.39 14.9805 18.9998C15.9259 18.6097 17.2622 18.7246 17.9751 17.9998C19.3739 16.487 20.0124 14.0444 19.9714 11.9999C19.9824 11.5256 20.0298 11.471 19.9714 10.9999Z" fill="white"/>
</svg>
