<svg width="24" height="24" viewBox="0 0 24 24" fill="none" xmlns="http://www.w3.org/2000/svg">
<path d="M13 9C12.0717 9 10.6564 9.34362 10 10C9.34362 10.6564 9 12.0717 9 13C9 13.9283 9.34362 14.3436 10 15C10.6564 15.6564 12.0717 16 13 16C13.9283 16 14.3436 15.6564 15 15C15.6564 14.3436 16 13.9283 16 13C16 12.0717 15.6564 10.6564 15 10C14.3436 9.34362 13.9283 9 13 9Z" fill="white"/>
<path fill-rule="evenodd" clip-rule="evenodd" d="M7.39301 3.29531C10.9362 2.90156 15.0639 2.90156 18.607 3.29531C20.5427 3.51195 22.4576 5.43371 22.6849 7.38148C23.105 10.9834 23.105 15.0165 22.6849 18.6184C22.4576 20.5662 20.5417 22.4869 18.607 22.7046C15.0636 23.0985 10.9365 23.0985 7.39301 22.7046C5.45733 22.4869 3.54248 20.5652 3.31518 18.6184C2.89494 15.0162 2.89494 10.9837 3.31518 7.38148C3.54248 5.43371 5.45733 3.51195 7.39301 3.29531ZM18.607 6.35993C18.3367 6.35993 17.7787 6.16829 17.5876 6.35993C17.3964 6.55158 17.5876 7.11045 17.5876 7.38148C17.5876 7.65251 17.3964 8.21137 17.5876 8.40302C17.7787 8.59467 18.3367 8.40302 18.607 8.40302C18.8774 8.40302 19.4353 8.59467 19.6265 8.40302C19.8177 8.21137 19.6265 7.65251 19.6265 7.38148C19.6265 7.11045 19.8177 6.55158 19.6265 6.35993C19.4353 6.16829 18.8774 6.35993 18.607 6.35993ZM7.39301 12.4892C7.39301 11.2018 8.52392 10.3349 9.43192 9.42456C10.3399 8.51424 12.2256 7.38148 13.5098 7.38148C14.7939 7.38148 15.6601 8.51424 16.5681 9.42456C17.4761 10.3349 18.607 11.2018 18.607 12.4892C18.607 13.7766 17.4761 15.665 16.5681 16.5754C15.6601 17.4857 14.7939 18.6184 13.5098 18.6184C12.2256 18.6184 10.3399 17.4857 9.43192 16.5754C8.52392 15.665 7.39301 13.7766 7.39301 12.4892Z" fill="white"/>
</svg>
