<svg width="24" height="24" viewBox="0 0 24 24" fill="none" xmlns="http://www.w3.org/2000/svg">
<path d="M19.0003 14.9975H17.0008C16.7016 14.9624 16.2855 14.8987 16.001 14.9975C15.7165 15.0964 15.214 15.7842 15.0012 15.9973L13.0016 16.9971C10.1583 15.551 8.44894 13.8417 7.00285 10.9984L8.00265 8.99877C8.43333 8.56808 9.07255 7.61016 9.00244 6.99918V4.99959C8.94565 4.51098 8.37019 4.32671 8.00265 3.9998C7.6351 3.67288 7.49475 2.99942 7.00285 3H5.00327C3.87147 3 2.93358 3.86777 3.00369 4.99959C3.53454 13.5533 10.4567 20.4655 19.0003 20.9963C20.1321 21.0664 20.9999 20.1285 20.9999 18.9967V16.9971C21.0099 15.9855 20.012 15.1177 19.0003 14.9975Z" fill="white"/>
</svg>
