<svg width="24" height="24" viewBox="0 0 24 24" fill="none" xmlns="http://www.w3.org/2000/svg">
<path d="M22 6.19103C21.2483 6.50273 20.8134 7.08336 20 7.17735C20.8582 6.68731 20.6913 5.12718 21 4.21837C20.1936 4.67724 19.9208 5.03102 19 5.2047C18.3845 4.56673 17.8952 4.36313 17 4.21837C16.1048 4.07361 14.8008 3.80943 14 4.21837C13.1992 4.62731 12.3717 5.39929 12 6.19103C11.6283 6.98277 11.7873 8.30636 12 9.15001C10.3694 9.07118 8.45579 8.87015 7 8.16368C5.54421 7.45722 4.02885 6.41643 3 5.2047C2.63914 5.80705 2.99952 6.48323 3 7.17735C2.99872 7.82197 2.68246 8.58133 3 9.15001C3.31754 9.71869 4.43902 9.77857 5 10.1363C4.34798 10.1194 3.56989 10.4396 3 10.1363C3.00489 11.0395 3.39868 11.4123 4 12.109C4.60132 12.8057 5.07326 13.9054 6 14.0817C5.64326 14.1854 5.37287 14.0776 5 14.0817C4.74189 14.0788 4.25442 14.1233 4 14.0817C4.26391 14.8586 5.31355 15.5678 6 16.0543C6.68645 16.5408 7.14558 17.0249 8 17.0406C6.5572 18.1258 4.83588 18.022 3 18.027C2.66574 18.028 2.33174 18.0662 2 18.027C3.87443 19.1838 5.76881 20.0022 8 19.9996C9.53969 20.0149 11.574 19.5686 13 19.0133C14.426 18.458 15.9098 18.08 17 17.0406C18.0902 16.0012 18.4154 14.4569 19 13.0953C19.5846 11.7337 20.012 10.6218 20 9.15001V8.16368C20.7847 7.60433 21.4615 6.97237 22 6.19103Z" fill="white"/>
</svg>
