<svg width="131" height="68" viewBox="0 0 131 68" fill="none" xmlns="http://www.w3.org/2000/svg">
<path d="M41.9934 24.3914C41.8973 24.8803 41.2212 29.1528 35.4698 29.1528C32.9575 29.1528 30.8313 28.0546 28.9949 25.8563C27.4482 34.0363 21.987 40.4453 14.594 40.4453C7.68395 40.4453 1.74003 35.0131 0.290287 24.941C0.0488027 21.0957 0 22.3163 0 15.1132V6.50686H2.99625V20.6685C2.99625 29.0921 7.00725 38.431 14.6422 38.431C16.5753 38.431 18.1702 37.8207 18.7981 37.4542C21.7946 35.8063 26.4821 31.1671 26.4821 21.3395V6.44531H29.4777V21.8889C30.7823 24.2693 32.3772 25.4289 34.8419 25.4289C38.0798 25.4289 39.5294 22.6822 39.5294 20.4849V6.50686H42.525V20.8514C44.0237 23.9026 45.3765 25.4289 48.1788 25.4289C51.4166 25.4289 52.9151 22.6822 52.9151 20.4849V6.44531H55.9116V20.8514C56.2492 21.9496 58.3756 25.4289 61.0338 25.4289H62V29.1528H61.8065C58.7141 29.1528 57.0229 27.8708 55.5243 24.3914C54.3648 27.9315 51.2714 29.1528 48.8564 29.1528C46.1502 29.1528 43.2019 27.6879 41.9934 24.3914Z" fill="#BF1B2C"/>
<path d="M124.137 29.4453C121.392 29.4453 118.401 27.9575 117.175 24.6095C117.077 25.1061 116.391 29.4453 110.556 29.4453C107.861 29.4453 105.556 28.2049 103.693 25.7257C102.664 27.9575 100.752 29.4453 97.663 29.4453H81V25.6632H97.026C100.605 25.6632 101.536 22.9975 101.536 20.7659V6.44531H104.527V20.8901C104.527 21.3233 104.527 21.6964 104.478 22.1296C105.85 24.4853 107.419 25.6632 109.919 25.6632C113.204 25.6632 114.43 22.8736 114.43 20.6418V6.44531H117.421V21.014C118.94 24.1131 120.607 25.6632 123.451 25.6632C126.735 25.6632 127.961 22.8736 127.961 20.6418V6.65519H131V21.3856C131 27.8957 126.784 29.4453 124.137 29.4453Z" fill="#BF1B2C"/>
<path d="M128.974 5.19531C127.883 5.19531 127 4.0105 127 2.62898C127 1.37898 127.883 0.195312 128.974 0.195312C130.117 0.195312 131 1.37898 131 2.62898C131 4.0105 130.117 5.19531 128.974 5.19531Z" fill="#BF1B2C"/>
<path d="M114.974 5.00781C113.884 5.00781 113 3.823 113 2.44148C113 1.19148 113.884 0.0078125 114.974 0.0078125C116.117 0.0078125 117 1.19148 117 2.44148C117 3.823 116.117 5.00781 114.974 5.00781Z" fill="#BF1B2C"/>
<path d="M102.974 5.97656C101.883 5.97656 101 4.79175 101 3.41023C101 2.16023 101.883 0.976562 102.974 0.976562C104.116 0.976562 105 2.16023 105 3.41023C105 4.79175 104.116 5.97656 102.974 5.97656Z" fill="#BF1B2C"/>
<path d="M41.006 37.1926H44.012V34.094C44.012 33.6585 43.8649 33.2885 43.571 32.9833C43.2767 32.6786 42.9199 32.526 42.5 32.526C42.0918 32.526 41.7408 32.6786 41.4469 32.9833C41.1528 33.2885 41.006 33.6585 41.006 34.094V37.1926ZM38 44.9766V34.094C38 33.2353 38.297 32.5013 38.891 31.8914C39.4849 31.2817 40.1897 30.9766 41.006 30.9766H44.012C44.8279 30.9766 45.5299 31.2848 46.1181 31.9007C46.7059 32.5167 47 33.2478 47 34.094V44.9766H44.012V38.7606H41.006V44.9766H38Z" fill="#BF1B2C"/>
<path d="M51 44.9766V30.9766H54.2037V43.4271H59V44.9766H51Z" fill="#BF1B2C"/>
<path d="M96 44.9766V30.9766H104V32.526H99.2037V37.1924H102.407V38.7605H99.2037V43.4271H104V44.9766H96Z" fill="#BF1B2C"/>
<path d="M111.006 43.4271H112.5C112.92 43.4271 113.277 43.2717 113.571 42.9605C113.865 42.6495 114.012 42.2825 114.012 41.8591V34.0938C114.012 33.6585 113.865 33.2883 113.571 32.9833C113.277 32.6786 112.92 32.526 112.5 32.526H111.006V43.4271ZM108 44.9766V30.9766H114.012C114.828 30.9766 115.53 31.2845 116.118 31.9005C116.706 32.5167 117 33.2477 117 34.0938V41.8591C117 42.7057 116.706 43.4366 116.118 44.0526C115.53 44.6686 114.828 44.9766 114.012 44.9766H108Z" fill="#BF1B2C"/>
<path d="M124.006 37.1926H127.012V34.094C127.012 33.6585 126.865 33.2885 126.571 32.9833C126.277 32.6786 125.92 32.526 125.5 32.526C125.092 32.526 124.741 32.6786 124.447 32.9833C124.153 33.2885 124.006 33.6585 124.006 34.094V37.1926ZM121 44.9766V34.094C121 33.2353 121.297 32.5013 121.891 31.8914C122.485 31.2817 123.19 30.9766 124.006 30.9766H127.012C127.828 30.9766 128.53 31.2848 129.118 31.9007C129.706 32.5167 130 33.2478 130 34.094V44.9766H127.012V38.7606H124.006V44.9766H121Z" fill="#BF1B2C"/>
<path d="M66.3745 25.8195H79.4235C85.2789 25.2849 89.2266 21.8885 89.2266 16.0841C89.2266 10.7725 85.7889 6.94196 79.869 6.94196H66.3745V25.8195ZM90.054 45.9766L78.7952 29.5871H66.6385L66.3745 45.9766H63V3.97656H80.1866C88.3343 3.97656 92.5998 9.47404 92.5998 16.0841C92.5998 22.26 88.8444 27.0771 82.0324 27.7558L94 45.9766H90.054Z" fill="#50ADE5"/>
<path d="M3.76054 48.9384H3.01042V47.9766H3.76054V48.9384ZM2.37682 48.9384H1.62669V47.9766H2.37682V48.9384ZM3.48582 52.3554V50.3527H2.14437C1.30988 50.3527 0.739602 51.2693 0.739602 52.4575C0.739602 53.6117 1.29936 54.5733 2.12333 54.5733C3.01062 54.5733 3.46478 53.8379 3.48582 52.3554ZM6 55.9766H5.51407C4.46839 55.9766 3.80283 55.422 3.49654 54.3245C3.17954 54.9016 2.64081 55.1956 1.88037 55.1956C0.802923 55.1956 0 54.0074 0 52.5025C0 50.896 0.802925 49.7644 2.00701 49.7644H4.24647V53.3965C4.24647 54.5283 4.74291 55.1956 5.59864 55.1956H6V55.9766Z" fill="#4D4A4A"/>
<path d="M8.98729 56.9766H8.08076V55.9965H8.98729V56.9766ZM7.31506 56.9766H6.40853V55.9965H7.31506V56.9766ZM9 49.9766V53.1826C9 54.5318 8.37462 55.2124 7.12362 55.2124H6V54.4164H6.82976C7.37886 54.4164 7.73629 54.2552 7.915 53.932C8.04262 53.7246 8.10643 53.3557 8.10643 52.8251V49.9766H9Z" fill="#4D4A4A"/>
<path d="M12 50.9766V55.1561C12 57.0024 11.3999 57.8859 10 57.9766V57.2177C10.8857 57.2177 11.3333 56.6399 11.3333 55.3032V50.9766H12Z" fill="#4D4A4A"/>
<path d="M16 55.9766H15.2582C14.9202 55.9766 14.6386 55.8359 14.4037 55.5651C14.1315 55.2623 14 54.8295 14 54.2561V48.9766H14.676V53.802C14.676 54.2994 14.7418 54.6565 14.8639 54.873C14.9671 55.0567 15.1455 55.1651 15.399 55.2084C15.4647 55.219 15.5398 55.219 16 55.219V55.9766Z" fill="#4D4A4A"/>
<path d="M20.6849 56.9766H19.889V55.9732H20.6849V56.9766ZM25 55.1825H16V54.356H22.8144C22.8256 54.2027 22.8368 54.061 22.8368 53.9309C22.8368 51.9361 21.8393 50.791 20.0796 50.791C19.127 50.791 18.4208 51.1807 17.9726 51.9598C17.8606 51.8299 17.6363 51.5937 17.289 51.2279C17.9278 50.3898 18.8467 49.9766 20.0684 49.9766C22.2989 49.9766 23.7671 51.5349 23.7671 53.9902V54.356H25V55.1825Z" fill="#4D4A4A"/>
<path d="M27.7013 49.9502H26.878V48.9766H27.7013V49.9502ZM26.1826 49.9502H25.3595V48.9766H26.1826V49.9502ZM29 55.9766H25V55.1859H25.7421C26.2405 55.1859 26.5651 55.0256 26.7274 54.7162C26.8436 54.4985 26.9013 54.132 26.9013 53.6049V50.775H27.7131V53.9601C27.7131 54.4529 27.6433 54.8652 27.4928 55.1744H29V55.9766Z" fill="#4D4A4A"/>
<path d="M31 48.9766V54.0721C31 55.3379 30.3717 55.9766 29.1154 55.9766H28V55.2299H28.8205C29.372 55.2299 29.7309 55.0784 29.9104 54.7753C30.0385 54.5808 30.1026 54.2347 30.1026 53.7369V48.9766H31Z" fill="#4D4A4A"/>
<path d="M33 55.9766H32V48.9766H33V55.9766Z" fill="#4D4A4A"/>
<path d="M39 55.9766H38.2582C37.9202 55.9766 37.6386 55.8359 37.4037 55.5651C37.1315 55.2623 37 54.8295 37 54.2561V48.9766H37.676V53.802C37.676 54.2994 37.7418 54.6565 37.8639 54.873C37.9671 55.0567 38.1455 55.1651 38.399 55.2084C38.4647 55.219 38.5398 55.219 39 55.219V55.9766Z" fill="#4D4A4A"/>
<path d="M45.5405 49.9502H44.7572V48.9766H45.5405V49.9502ZM47.1838 55.1859C47.2058 54.934 47.2168 54.6935 47.2168 54.4641C47.2168 52.6883 46.5111 51.497 45.2978 51.497C43.9522 51.497 42.364 53.1238 41.7793 54.9913V55.1859H47.1838ZM47.9449 55.9766H39V55.1744H40.0257C40.8087 55.1744 41.1949 54.5787 41.1949 53.3872V51.3251H41.9669V53.3184C42.7941 51.703 44.1286 50.7638 45.3529 50.7638C47.1177 50.7638 48 52.0695 48 54.6475C48 55.0486 47.9778 55.4953 47.9449 55.9766Z" fill="#4D4A4A"/>
<path d="M53 56.1191H51.1654C50.9625 57.2857 50.2373 57.8975 49 57.9766V57.2177C49.992 57.2177 50.4933 56.6401 50.4933 55.3034V50.9766H51.2399V55.3261H53V56.1191Z" fill="#4D4A4A"/>
<path d="M56 48.9766V54.0721C56 55.3379 55.3717 55.9766 54.1152 55.9766H53V55.2299H53.8206C54.3718 55.2299 54.7308 55.0784 54.9103 54.7753C55.0385 54.5808 55.1026 54.2347 55.1026 53.7369V48.9766H56Z" fill="#4D4A4A"/>
<path d="M58 55.9766H57V48.9766H58V55.9766Z" fill="#4D4A4A"/>
<path d="M74 56.1026H66.0949C66.0949 56.0235 66.0834 55.9332 66.0498 55.8315C65.5552 57.1863 64.4303 57.9766 63.1826 57.9766C61.3944 57.9766 60 56.3734 60 54.0928V50.9766H60.7871V53.9347C60.7871 55.9104 61.7093 57.2088 63.1826 57.2088C64.5432 57.2088 65.3977 56.1362 65.5437 54.3864V50.9766H66.3535V54.0928C66.3535 54.533 66.3085 54.9396 66.2185 55.312H67.6243C68.3438 55.312 68.5799 54.9622 68.5799 53.7653V50.9766H69.3672V54.1154C69.3672 54.601 69.2996 55.0073 69.1536 55.312H70.503C71.3464 55.312 71.6272 54.9509 71.6272 53.7653V50.9766H72.4147V54.1154C72.4147 54.601 72.3357 55.0073 72.1897 55.312H74V56.1026Z" fill="#4D4A4A"/>
<path d="M78.8706 54.3938C78.8706 53.8969 78.7721 53.4997 78.5757 53.2016C78.3463 52.8375 78.0079 52.6609 77.5382 52.6609C77.0467 52.6609 76.6644 52.8594 76.4134 53.246C76.206 53.5662 76.1077 53.9853 76.1077 54.5262C76.1077 55.0228 76.206 55.4313 76.4134 55.7403C76.6644 56.1048 77.0249 56.2812 77.4945 56.2812C78.4119 56.2812 78.8706 55.6521 78.8706 54.3938ZM81 56.0165H79.329C78.9141 56.6564 78.3026 56.9766 77.4945 56.9766C76.6535 56.9766 76.0203 56.6564 75.6162 56.0165H74V55.2437H75.2887C75.2339 55.0118 75.2013 54.7581 75.2013 54.4821C75.2013 53.7534 75.4087 53.1577 75.8128 52.6827C76.2277 52.2084 76.7955 51.9766 77.5055 51.9766C78.2151 51.9766 78.7832 52.2194 79.1872 52.694C79.5695 53.1464 79.7659 53.7426 79.7659 54.4708C79.7659 54.7471 79.7333 55.0008 79.6676 55.2437H81V56.0165Z" fill="#4D4A4A"/>
<path d="M87.7334 50.1482H86.9445V49.2066H87.7334V50.1482ZM86.989 48.9184H86.2V47.9766H86.989V48.9184ZM86.2779 50.1482H85.489V49.2066H86.2779V50.1482ZM90 50.9459V54.0264C90 55.3227 89.4555 55.9766 88.3553 55.9766H81V55.2008H82.0331C82.7442 55.2008 83.1332 54.7244 83.2111 53.7826V50.9459H83.9889V54.0264C83.9889 54.4806 83.922 54.8574 83.7999 55.1564V55.2008H85.2554C85.9665 55.2008 86.2 54.8574 86.2 53.6828V50.9459H86.9777V54.0264C86.9777 54.503 86.9109 54.9017 86.7666 55.2008H88.0998C88.9333 55.2008 89.211 54.8574 89.211 53.6828V50.9459H90Z" fill="#4D4A4A"/>
<path d="M95.7607 48.9384H95.0107V47.9766H95.7607V48.9384ZM94.3767 48.9384H93.6267V47.9766H94.3767V48.9384ZM95.4859 52.3554V50.3527H94.1445C93.3099 50.3527 92.7394 51.2693 92.7394 52.4575C92.7394 53.6117 93.2994 54.5733 94.1232 54.5733C95.0107 54.5733 95.4649 53.8379 95.4859 52.3554ZM98 55.9766H97.5143C96.4683 55.9766 95.803 55.422 95.4965 54.3245C95.1796 54.9016 94.6409 55.1956 93.8802 55.1956C92.803 55.1956 92 54.0074 92 52.5025C92 50.896 92.803 49.7644 94.0071 49.7644H96.2464V53.3965C96.2464 54.5283 96.7429 55.1956 97.5986 55.1956H98V55.9766Z" fill="#4D4A4A"/>
<path d="M109 55.9766H98V55.2055H99.0768C99.8179 55.2055 100.292 54.732 100.292 53.7959V50.9766H101.115V54.0382C101.115 54.4897 101.045 54.8642 100.918 55.1614V55.2055H102.435C103.176 55.2055 103.419 54.8642 103.419 53.6968V50.9766H104.229V54.0382C104.229 54.5119 104.16 54.9083 104.009 55.2055H105.399C106.267 55.2055 106.557 54.8642 106.557 53.6968V50.9766H107.367V54.0382C107.367 54.5119 107.286 54.9083 107.136 55.2055H109V55.9766Z" fill="#4D4A4A"/>
<path d="M118 50.9766V54.038C118 55.3264 117.455 55.9766 116.356 55.9766H109V55.2055H110.034C110.744 55.2055 111.133 54.732 111.211 53.7959V50.9766H111.989V54.038C111.989 54.4897 111.922 54.8642 111.8 55.1614V55.2055H113.256C113.967 55.2055 114.2 54.8642 114.2 53.6968V50.9766H114.978V54.038C114.978 54.5117 114.911 54.9083 114.767 55.2055H116.1C116.933 55.2055 117.211 54.8642 117.211 53.6968V50.9766H118Z" fill="#4D4A4A"/>
<path d="M122.663 48.8772L122.1 48.9342C122.029 48.6037 121.841 48.4438 121.536 48.4438C121.149 48.4438 120.961 48.6947 120.961 49.2077C120.961 49.4018 121.008 49.5727 121.102 49.7096H122.652V50.2685H119.881V49.7096H120.456C120.397 49.5613 120.362 49.3902 120.362 49.2077C120.362 48.4326 120.82 47.9766 121.536 47.9766C122.158 47.9766 122.534 48.2729 122.663 48.8772ZM122.628 55.3083V52.9023C122.628 52.1954 122.123 51.6595 121.313 51.6595C120.479 51.6595 119.845 52.5261 119.845 53.4498C119.845 54.4759 120.444 55.3197 121.266 55.3197L122.628 55.3083ZM125 56.1067H123.38C123.145 57.2808 122.346 57.8969 120.996 57.9766V57.2126C121.818 57.2126 122.323 56.8932 122.534 56.1067H121.254C119.939 56.1067 119 54.9889 119 53.5294C119 52.0471 120.033 50.9184 121.36 50.9184C122.663 50.9184 123.474 51.6937 123.474 53.1986V55.3197H125V56.1067Z" fill="#4D4A4A"/>
<path d="M129.152 54.3938C129.152 53.8969 129.058 53.4997 128.88 53.2016C128.649 52.8375 128.314 52.6609 127.874 52.6609C127.393 52.6609 127.036 52.8594 126.796 53.246C126.597 53.5662 126.492 53.9853 126.492 54.5262C126.492 55.0228 126.597 55.4313 126.796 55.7403C127.036 56.1048 127.382 56.2812 127.832 56.2812C128.712 56.2812 129.152 55.6521 129.152 54.3938ZM130 54.4708C130 55.1885 129.812 55.7734 129.435 56.2371C129.037 56.7337 128.503 56.9766 127.832 56.9766C127.026 56.9766 126.419 56.6564 126.021 56.0165H124V55.2437H125.717C125.655 55.0118 125.623 54.7581 125.623 54.4821C125.623 53.7534 125.822 53.1577 126.22 52.6827C126.618 52.2084 127.162 51.9766 127.843 51.9766C128.524 51.9766 129.068 52.2194 129.456 52.694C129.822 53.1464 130 53.7426 130 54.4708Z" fill="#4D4A4A"/>
<path d="M0.81902 63.9742C0.838548 64.297 0.92154 64.5591 1.06776 64.7604C1.34626 65.1376 1.83678 65.326 2.53953 65.326C2.85453 65.326 3.14117 65.2847 3.40014 65.2022C3.90042 65.042 4.15079 64.7552 4.15079 64.3422C4.15079 64.0321 4.04455 63.8115 3.83253 63.6798C3.61773 63.5508 3.28111 63.4384 2.82315 63.3428L1.97928 63.1686C1.42786 63.0548 1.03754 62.9296 0.808559 62.7927C0.412662 62.5551 0.21483 62.2 0.21483 61.7276C0.21483 61.2162 0.409408 60.7966 0.798563 60.4688C1.18749 60.1408 1.73867 59.9766 2.45143 59.9766C3.10769 59.9766 3.66492 60.1208 4.12359 60.4088C4.58225 60.6965 4.8117 61.1568 4.8117 61.7895H3.99294C3.95109 61.4848 3.86159 61.2512 3.72444 61.0883C3.46965 60.7916 3.03749 60.643 2.42748 60.643C1.93488 60.643 1.58083 60.7386 1.36556 60.9297C1.14983 61.1208 1.04219 61.3427 1.04219 61.5959C1.04219 61.8747 1.16959 62.0787 1.42414 62.2077C1.59082 62.2905 1.96835 62.3938 2.55674 62.5178L3.43036 62.6997C3.85183 62.7877 4.17705 62.9077 4.40604 63.06C4.80194 63.3261 5 63.7121 5 64.2182C5 64.8482 4.7473 65.2987 4.24215 65.57C3.73699 65.8411 3.14977 65.9766 2.48095 65.9766C1.70101 65.9766 1.09031 65.7959 0.649317 65.4346C0.207856 65.0755 -0.00857405 64.5887 0.000259822 63.9742H0.81902Z" fill="#4F4C4D"/>
<path d="M7 59.9766H7.61858V62.2072C7.7651 61.9874 7.89703 61.8328 8.01381 61.743C8.21306 61.5884 8.46159 61.5111 8.75956 61.5111C9.29311 61.5111 9.65513 61.7325 9.84526 62.1746C9.94836 62.4164 10 62.7514 10 63.18V65.9766H9.36427V63.2291C9.36427 62.9089 9.32997 62.6739 9.26118 62.5248C9.14896 62.2859 8.9382 62.1665 8.62892 62.1665C8.37236 62.1665 8.13971 62.2712 7.93133 62.4801C7.72277 62.689 7.61858 63.0837 7.61858 63.6646V65.9766H7V59.9766Z" fill="#4F4C4D"/>
<path d="M13.9674 65.278C14.1176 65.3836 14.2952 65.4364 14.5004 65.4364C14.7506 65.4364 14.9928 65.3848 15.2272 65.2814C15.622 65.1097 15.8195 64.829 15.8195 64.4389V63.9278C15.7327 63.9774 15.6212 64.0188 15.4845 64.0519C15.3477 64.0849 15.2138 64.1085 15.0825 64.1225L14.6529 64.1719C14.3956 64.2025 14.2019 64.2507 14.0721 64.3164C13.8523 64.4268 13.7425 64.6028 13.7425 64.8448C13.7425 65.0279 13.8173 65.1722 13.9674 65.278ZM15.4641 63.5613C15.6272 63.5425 15.7367 63.4813 15.7918 63.378C15.8235 63.3212 15.8392 63.2399 15.8392 63.1334C15.8392 62.9161 15.7531 62.7583 15.5809 62.6605C15.409 62.5623 15.1626 62.5133 14.8422 62.5133C14.4717 62.5133 14.209 62.6031 14.054 62.7828C13.9672 62.8823 13.9108 63.0301 13.8844 63.2265H13.2212C13.2342 62.7591 13.4032 62.4339 13.728 62.251C14.0526 62.0683 14.4294 61.9766 14.8579 61.9766C15.3549 61.9766 15.7585 62.0613 16.0686 62.2309C16.3764 62.4005 16.5303 62.6639 16.5303 63.0217V65.2002C16.5303 65.2661 16.5452 65.319 16.5756 65.3589C16.6058 65.3988 16.6698 65.4188 16.7673 65.4188C16.7987 65.4188 16.8341 65.4169 16.8738 65.4134C16.9132 65.4098 16.9553 65.4047 17 65.3977V65.8672C16.8895 65.8953 16.8052 65.9131 16.7473 65.9202C16.6895 65.9272 16.6104 65.9308 16.5104 65.9308C16.2655 65.9308 16.0879 65.8529 15.9774 65.6978C15.9195 65.6153 15.8786 65.4989 15.855 65.3483C15.7103 65.5177 15.5021 65.6647 15.231 65.7895C14.9598 65.9143 14.6611 65.9766 14.3346 65.9766C13.9423 65.9766 13.6219 65.8702 13.3732 65.6575C13.1243 65.4448 13 65.1787 13 64.8589C13 64.5086 13.1225 64.2372 13.3674 64.0445C13.612 63.8515 13.9333 63.7328 14.3306 63.6882L15.4641 63.5613Z" fill="#4F4C4D"/>
<path d="M20 62.0642H20.7411V62.6196C20.9189 62.4272 21.0798 62.2871 21.2242 62.1994C21.4711 62.051 21.7515 61.9766 22.0652 61.9766C22.4205 61.9766 22.7064 62.0532 22.9231 62.2069C23.0451 62.2943 23.1561 62.4235 23.256 62.5938C23.4225 62.3845 23.6184 62.2293 23.843 62.1281C24.0679 62.0273 24.3206 61.9766 24.6009 61.9766C25.2005 61.9766 25.6087 62.1666 25.8251 62.5465C25.9416 62.7511 26 63.0264 26 63.3721V65.9766H25.2213V63.2589C25.2213 62.9983 25.147 62.8192 24.9985 62.7218C24.8501 62.6245 24.669 62.5758 24.4552 62.5758C24.161 62.5758 23.9076 62.6622 23.6953 62.8352C23.4829 63.0081 23.3767 63.2966 23.3767 63.7008V65.9766H22.6149V63.4232C22.6149 63.1577 22.5788 62.9641 22.5065 62.8424C22.3927 62.6597 22.1804 62.5683 21.8696 62.5683C21.5863 62.5683 21.329 62.6646 21.0971 62.857C20.8654 63.0494 20.7495 63.3976 20.7495 63.9019V65.9766H20V62.0642Z" fill="#4F4C4D"/>
<path d="M28.7732 64.323C28.7976 64.5863 28.866 64.7881 28.9785 64.9282C29.1852 65.1828 29.5442 65.31 30.0549 65.31C30.3589 65.31 30.6266 65.2463 30.8578 65.1191C31.0889 64.9919 31.2045 64.7954 31.2045 64.5293C31.2045 64.3277 31.112 64.1739 30.9273 64.0689C30.8094 64.0045 30.5761 63.9299 30.2279 63.8452L29.5784 63.6874C29.1636 63.5878 28.8577 63.4767 28.6609 63.354C28.3097 63.1405 28.1341 62.845 28.1341 62.468C28.1341 62.0235 28.2993 61.6636 28.6301 61.389C28.9607 61.1141 29.4054 60.9766 29.964 60.9766C30.6947 60.9766 31.2216 61.1844 31.5446 61.5995C31.7468 61.8626 31.845 62.1462 31.8391 62.4503H31.0794C31.064 62.2731 30.9985 62.1117 30.8827 61.9664C30.6936 61.7599 30.3656 61.6566 29.899 61.6566C29.5879 61.6566 29.3522 61.7132 29.192 61.8269C29.0319 61.9404 28.9519 62.0907 28.9519 62.2771C28.9519 62.481 29.057 62.6443 29.2675 62.7665C29.389 62.8394 29.5682 62.9036 29.8048 62.9592L30.3468 63.0864C30.9356 63.2237 31.3303 63.3568 31.5308 63.4854C31.8436 63.6874 32 64.0045 32 64.437C32 64.8553 31.8363 65.2163 31.509 65.5205C31.1817 65.8244 30.6834 65.9766 30.0136 65.9766C29.2924 65.9766 28.7822 65.818 28.4818 65.5007C28.1818 65.1833 28.0211 64.7909 28 64.323H28.7732Z" fill="#4F4C4D"/>
<path d="M40.3683 63.5177L39.5058 60.8669L38.6094 63.5177H40.3683ZM39.1098 59.9766H39.9665L42 65.9766H41.1687L40.5836 64.1795H38.3856L37.7779 65.9766H37L39.1098 59.9766Z" fill="#4F4C4D"/>
<path d="M44 59.9766H45V65.9766H44V59.9766Z" fill="#4F4C4D"/>
<path d="M48 62.0642H48.6563V62.74C48.7102 62.6086 48.8418 62.4484 49.0518 62.2598C49.2615 62.0709 49.5035 61.9766 49.7774 61.9766C49.7901 61.9766 49.8119 61.9779 49.8426 61.9803C49.8732 61.9827 49.9256 61.9876 50 61.9948V62.689C49.959 62.6817 49.9213 62.6768 49.8867 62.6742C49.8522 62.6721 49.8143 62.6707 49.7735 62.6707C49.4254 62.6707 49.158 62.7772 48.9713 62.9904C48.7843 63.2034 48.691 63.4487 48.691 63.7264V65.9766H48V62.0642Z" fill="#4F4C4D"/>
<path d="M55.2387 63.6502C55.2087 63.3748 55.1393 63.1549 55.0306 62.9898C54.8292 62.684 54.4933 62.531 54.0226 62.531C53.6854 62.531 53.4025 62.6364 53.1739 62.847C52.9453 63.0576 52.8243 63.3254 52.8107 63.6502H55.2387ZM54.9734 62.1657C55.2651 62.2916 55.4874 62.4546 55.6401 62.6546C55.7874 62.8453 55.8855 63.0677 55.9347 63.3218C55.9781 63.496 56 63.7736 56 64.155H52.7941C52.8079 64.5398 52.9125 64.8484 53.1085 65.0807C53.3046 65.3132 53.6083 65.4294 54.0191 65.4294C54.4031 65.4294 54.7092 65.3194 54.938 65.0997C55.0658 64.9721 55.1565 64.8243 55.2098 64.6562H55.9384C55.9191 64.795 55.8553 64.95 55.747 65.1204C55.6386 65.2913 55.5177 65.4307 55.3844 65.5388C55.1611 65.7272 54.8847 65.8541 54.5551 65.9202C54.3781 65.9578 54.178 65.9766 53.9549 65.9766C53.4095 65.9766 52.9475 65.8054 52.5684 65.463C52.1895 65.1204 52 64.641 52 64.0243C52 63.417 52.1908 62.9241 52.5725 62.5452C52.9543 62.1663 53.4534 61.9766 54.0694 61.9766C54.3803 61.9766 54.6817 62.0398 54.9734 62.1657Z" fill="#4F4C4D"/>
<path d="M59.1105 64.8933C59.3152 65.2003 59.6435 65.3536 60.095 65.3536C60.4454 65.3536 60.7335 65.2114 60.9594 64.927C61.1852 64.6427 61.2982 64.2345 61.2982 63.7029C61.2982 63.1657 61.1816 62.7682 60.9488 62.5103C60.716 62.2524 60.4286 62.1232 60.0864 62.1232C59.705 62.1232 59.3958 62.2609 59.1587 62.5361C58.9219 62.8113 58.8033 63.2161 58.8033 63.7503C58.8033 64.2054 58.9057 64.5863 59.1105 64.8933ZM60.8094 61.7065C60.9441 61.7859 61.0972 61.9249 61.2685 62.1232V59.9766H62V65.8258H61.315V65.2347C61.1381 65.4964 60.9288 65.6858 60.6872 65.8021C60.4459 65.9185 60.1693 65.9766 59.8577 65.9766C59.355 65.9766 58.9196 65.7778 58.5519 65.3794C58.1841 64.9813 58 64.4516 58 63.79C58 63.1711 58.1677 62.6345 58.5034 62.1809C58.839 61.7272 59.3184 61.5003 59.9419 61.5003C60.2872 61.5003 60.5763 61.5692 60.8094 61.7065Z" fill="#4F4C4D"/>
<path d="M64.9674 65.278C65.1175 65.3836 65.2951 65.4364 65.5004 65.4364C65.7505 65.4364 65.9927 65.3848 66.2271 65.2814C66.6221 65.1097 66.8194 64.829 66.8194 64.4389V63.9278C66.7326 63.9774 66.621 64.0188 66.4843 64.0519C66.3476 64.0849 66.2136 64.1085 66.0822 64.1225L65.6528 64.1719C65.3955 64.2025 65.2018 64.2507 65.072 64.3164C64.8521 64.4268 64.7424 64.6028 64.7424 64.8448C64.7424 65.0279 64.8173 65.1722 64.9674 65.278ZM66.464 63.5613C66.6271 63.5425 66.7366 63.4813 66.7917 63.378C66.8234 63.3212 66.8391 63.2399 66.8391 63.1334C66.8391 62.9161 66.7531 62.7583 66.5808 62.6605C66.4088 62.5623 66.1625 62.5133 65.8421 62.5133C65.4716 62.5133 65.2087 62.6031 65.054 62.7828C64.9672 62.8823 64.9106 63.0301 64.8844 63.2265H64.221C64.2342 62.7591 64.4034 62.4339 64.728 62.251C65.0525 62.0683 65.4293 61.9766 65.8578 61.9766C66.3545 61.9766 66.7584 62.0613 67.0685 62.2309C67.3762 62.4005 67.5301 62.6639 67.5301 63.0217V65.2002C67.5301 65.2661 67.545 65.319 67.5752 65.3589C67.6056 65.3988 67.6696 65.4188 67.7671 65.4188C67.7985 65.4188 67.8342 65.4169 67.8734 65.4134C67.9132 65.4098 67.9551 65.4047 68 65.3977V65.8672C67.8895 65.8953 67.805 65.9131 67.7474 65.9202C67.6891 65.9272 67.6102 65.9308 67.5102 65.9308C67.2653 65.9308 67.0877 65.8529 66.9773 65.6978C66.9194 65.6153 66.8785 65.4989 66.8548 65.3483C66.7101 65.5177 66.5019 65.6647 66.2308 65.7895C65.9597 65.9143 65.661 65.9766 65.3345 65.9766C64.9422 65.9766 64.6221 65.8702 64.373 65.6575C64.1243 65.4448 64 65.1787 64 64.8589C64 64.5086 64.1224 64.2372 64.3673 64.0445C64.6122 63.8515 64.9332 63.7328 65.3305 63.6882L66.464 63.5613Z" fill="#4F4C4D"/>
<path d="M75 59.9766V60.6914H72.922V65.9766H72.0782V60.6914H70V59.9766H75Z" fill="#4F4C4D"/>
<path d="M77 62.0642H77.6563V62.74C77.7099 62.6086 77.8418 62.4484 78.0518 62.2598C78.2615 62.0709 78.5035 61.9766 78.7774 61.9766C78.7901 61.9766 78.8121 61.9779 78.8426 61.9803C78.8732 61.9827 78.9256 61.9876 79 61.9948V62.689C78.9588 62.6817 78.9213 62.6768 78.8869 62.6742C78.8522 62.6721 78.8143 62.6707 78.7733 62.6707C78.4254 62.6707 78.158 62.7772 77.9713 62.9904C77.7845 63.2034 77.691 63.4487 77.691 63.7264V65.9766H77V62.0642Z" fill="#4F4C4D"/>
<path d="M81.9673 65.278C82.1174 65.3836 82.295 65.4364 82.5005 65.4364C82.7503 65.4364 82.9929 65.3848 83.2271 65.2814C83.6219 65.1097 83.8192 64.829 83.8192 64.4389V63.9278C83.7326 63.9774 83.6211 64.0188 83.4842 64.0519C83.3479 64.0849 83.2137 64.1085 83.0824 64.1225L82.653 64.1719C82.3953 64.2025 82.2017 64.2507 82.0719 64.3164C81.8522 64.4268 81.7423 64.6028 81.7423 64.8448C81.7423 65.0279 81.8172 65.1722 81.9673 65.278ZM83.464 63.5613C83.6272 63.5425 83.7366 63.4813 83.7918 63.378C83.8234 63.3212 83.8392 63.2399 83.8392 63.1334C83.8392 62.9161 83.753 62.7583 83.5808 62.6605C83.4089 62.5623 83.1625 62.5133 82.8421 62.5133C82.4716 62.5133 82.2088 62.6031 82.0537 62.7828C81.9671 62.8823 81.9107 63.0301 81.8843 63.2265H81.221C81.2342 62.7591 81.403 62.4339 81.7276 62.251C82.0524 62.0683 82.4292 61.9766 82.8576 61.9766C83.3548 61.9766 83.7584 62.0613 84.0686 62.2309C84.3762 62.4005 84.5303 62.6639 84.5303 63.0217V65.2002C84.5303 65.2661 84.5454 65.319 84.5756 65.3589C84.6058 65.3988 84.6697 65.4188 84.7672 65.4188C84.7987 65.4188 84.8341 65.4169 84.8738 65.4134C84.9132 65.4098 84.9553 65.4047 85 65.3977V65.8672C84.8895 65.8953 84.8052 65.9131 84.7473 65.9202C84.6895 65.9272 84.6104 65.9308 84.5106 65.9308C84.2657 65.9308 84.0879 65.8529 83.9774 65.6978C83.9195 65.6153 83.8786 65.4989 83.8549 65.3483C83.7102 65.5177 83.502 65.6647 83.2309 65.7895C82.9597 65.9143 82.6611 65.9766 82.3347 65.9766C81.9423 65.9766 81.6217 65.8702 81.373 65.6575C81.1241 65.4448 81 65.1787 81 64.8589C81 64.5086 81.1222 64.2372 81.3672 64.0445C81.6119 63.8515 81.9331 63.7328 82.3305 63.6882L83.464 63.5613Z" fill="#4F4C4D"/>
<path d="M88.1105 64.8933C88.3151 65.2003 88.6433 65.3536 89.0951 65.3536C89.4454 65.3536 89.7337 65.2114 89.9593 64.927C90.1852 64.6427 90.2981 64.2345 90.2981 63.7029C90.2981 63.1657 90.1818 62.7682 89.949 62.5103C89.7161 62.2524 89.4287 62.1232 89.0866 62.1232C88.7049 62.1232 88.3959 62.2609 88.1588 62.5361C87.9217 62.8113 87.8034 63.2161 87.8034 63.7503C87.8034 64.2054 87.9058 64.5863 88.1105 64.8933ZM89.8093 61.7065C89.9443 61.7859 90.0974 61.9249 90.2685 62.1232V59.9766H91V65.8258H90.315V65.2347C90.138 65.4964 89.929 65.6858 89.6872 65.8021C89.4458 65.9185 89.1694 65.9766 88.8575 65.9766C88.3548 65.9766 87.9194 65.7778 87.5519 65.3794C87.1839 64.9813 87 64.4516 87 63.79C87 63.1711 87.1677 62.6345 87.5032 62.1809C87.8388 61.7272 88.3184 61.5003 88.9417 61.5003C89.2871 61.5003 89.5763 61.5692 89.8093 61.7065Z" fill="#4F4C4D"/>
<path d="M94 61.6224H95V65.9766H94V61.6224ZM94 59.9766H95V60.8098H94V59.9766Z" fill="#4F4C4D"/>
<path d="M97 62.0642H97.5876V62.6196C97.7617 62.3906 97.9462 62.2261 98.1409 62.1263C98.3356 62.0267 98.5522 61.9766 98.7905 61.9766C99.3128 61.9766 99.6655 62.1701 99.8487 62.5575C99.9496 62.7693 100 63.0726 100 63.467V65.9766H99.3712V63.5108C99.3712 63.272 99.338 63.0798 99.2715 62.9336C99.1617 62.6903 98.9622 62.5683 98.6735 62.5683C98.5268 62.5683 98.4066 62.5842 98.3126 62.6158C98.1432 62.6695 97.9942 62.7766 97.8659 62.9374C97.763 63.0665 97.6958 63.1997 97.665 63.3375C97.6341 63.475 97.6186 63.6716 97.6186 63.9272V65.9766H97V62.0642Z" fill="#4F4C4D"/>
<path d="M105.942 62.9836C105.71 62.7348 105.413 62.6104 105.053 62.6104C104.515 62.6104 104.146 62.8411 103.948 63.3024C103.843 63.5488 103.791 63.8716 103.791 64.2708C103.791 64.74 103.895 65.0973 104.103 65.3421C104.311 65.587 104.591 65.7094 104.943 65.7094C105.493 65.7094 105.88 65.4827 106.103 65.0289C106.228 64.7724 106.29 64.4731 106.29 64.1308C106.29 63.6149 106.174 63.2325 105.942 62.9836ZM105.848 62.2332C105.993 62.324 106.14 62.4562 106.29 62.6298V62.1049H107V65.8923C107 66.4213 106.915 66.8387 106.744 67.1445C106.426 67.7096 105.826 67.9922 104.943 67.9922C104.452 67.9922 104.039 67.8918 103.703 67.6907C103.368 67.4899 103.181 67.1755 103.141 66.7479H103.923C103.96 66.9345 104.034 67.0782 104.144 67.1795C104.317 67.3351 104.589 67.4127 104.96 67.4127C105.547 67.4127 105.931 67.2236 106.112 66.8449C106.22 66.6222 106.269 66.224 106.26 65.6513C106.107 65.864 105.923 66.022 105.707 66.1257C105.492 66.2295 105.206 66.2812 104.852 66.2812C104.358 66.2812 103.926 66.1211 103.555 65.8011C103.185 65.481 103 64.9513 103 64.2124C103 63.5151 103.187 62.9706 103.56 62.5792C103.933 62.1878 104.383 61.9922 104.911 61.9922C105.269 61.9922 105.581 62.0725 105.848 62.2332Z" fill="#4F4C4D"/>
<path d="M113 60H116.945V60.7352H113.718V62.5568H116.7V63.2512H113.718V65.2852H117V66H113V60Z" fill="#4F4C4D"/>
<path d="M120.773 64.3465C120.798 64.6098 120.866 64.8115 120.978 64.9517C121.185 65.2063 121.544 65.3334 122.055 65.3334C122.359 65.3334 122.627 65.2697 122.858 65.1426C123.089 65.0154 123.205 64.8188 123.205 64.5527C123.205 64.3512 123.112 64.1973 122.927 64.0924C122.809 64.0279 122.576 63.9534 122.228 63.8687L121.579 63.7108C121.164 63.6113 120.858 63.5001 120.661 63.3774C120.31 63.1639 120.134 62.8685 120.134 62.4914C120.134 62.0469 120.299 61.6871 120.63 61.4124C120.961 61.1376 121.405 61 121.964 61C122.695 61 123.221 61.2079 123.545 61.6229C123.747 61.886 123.845 62.1696 123.839 62.4737H123.079C123.064 62.2965 122.999 62.1352 122.883 61.9898C122.694 61.7834 122.366 61.68 121.899 61.68C121.588 61.68 121.352 61.7366 121.192 61.8504C121.032 61.9639 120.952 62.1142 120.952 62.3006C120.952 62.5044 121.057 62.6677 121.268 62.7899C121.389 62.8628 121.568 62.927 121.805 62.9827L122.347 63.1099C122.936 63.2472 123.33 63.3803 123.531 63.5088C123.844 63.7108 124 64.0279 124 64.4604C124 64.8788 123.836 65.2398 123.509 65.5439C123.182 65.8478 122.683 66 122.014 66C121.292 66 120.782 65.8414 120.482 65.5241C120.182 65.2067 120.021 64.8144 120 64.3465H120.773Z" fill="#4F4C4D"/>
<path d="M126.582 61H127.313V62.0779H128V62.6077H127.313V65.1275C127.313 65.2623 127.364 65.3523 127.466 65.398C127.522 65.4244 127.616 65.4376 127.747 65.4376C127.782 65.4376 127.819 65.4368 127.859 65.4353C127.9 65.4335 127.946 65.4296 128 65.4232V65.9387C127.917 65.9602 127.831 65.976 127.741 65.9855C127.651 65.9952 127.554 66 127.45 66C127.112 66 126.883 65.9224 126.763 65.7675C126.642 65.6123 126.582 65.4112 126.582 65.1638V62.6077H126V62.0779H126.582V61Z" fill="#4F4C4D"/>
<path d="M130 65H131V66H130V65Z" fill="#4F4C4D"/>
</svg>
